<svg height="92.56002" viewBox="0 0 171.69131 92.56002" width="171.69131" xmlns="http://www.w3.org/2000/svg"><path d="m157.40349.00016h-143.08844a14.42141 14.42141 0 0 0 -10.14593 4.12807 14.26059 14.26059 0 0 0 -4.16828 10.21294v63.851a14.1534 14.1534 0 0 0 4.15488 10.17274 14.3276 14.3276 0 0 0 10.15933 4.19509h143.08844a14.35442 14.35442 0 0 0 14.28741-14.36783v-63.8644a14.22038 14.22038 0 0 0 -14.1126-14.32736q-.08739-.00066-.17481-.00025z" fill="#fff"/><path d="m166.66483 14.32777a9.19433 9.19433 0 0 0 -9.08622-9.30118q-.08755-.001-.17512-.00038h-39.994l22.94562 38.34546 2.11765.268 1.34028 1.75577v1.63515l1.44751.29486 1.34028 1.82279v1.58153l1.50112.26806 1.51451 1.64854v3.64563a24.84912 24.84912 0 0 0 6.03127 4.02084c2.02383.77737 2.25167 4.02085 3.47132 5.74981 1.52792 2.51973 3.61876 3.52494 3.17647 4.93224-1.01861 3.76619-4.87862 10.11912-8.47057 10.414h-14.20695v6.08488h17.7989a9.30157 9.30157 0 0 0 9.26161-9.34134l-.00027-.04063v-63.784" fill="#bf0d3e"/><path d="m68.82429 81.50267h-6.87564c0-17.1824 5.80341-26.685 12.75948-28.5748.9516-.17423.4959-4.86522-.71035-6.29932h-4.02084c-.64334 0-.26806-1.20625-.26806-1.20625l3.25688-6.95607-.44229-1.9032h-12.03573l9.89126-6.91585c.45571-18.24118 19.166-19.66193 30.43781-12.06253 6.70141 4.43633 7.21071 13.22858 6.70141 19.30005-.08041.38868-1.74237.134-1.74237.134s-1.13924 6.70141 1.83619 6.70141h13.14816c5.36112-.21445 10.53461 3.41771 10.53461 3.41771l1.25987-4.59716-28.80268-37.51444h-89.437a9.382 9.382 0 0 0 -6.621 2.68056 9.28811 9.28811 0 0 0 -2.68056 6.621v63.8644a9.16749 9.16749 0 0 0 2.68056 6.59418 9.38191 9.38191 0 0 0 6.621 2.74758h58.061c-1.4207-2.43931-3.04244-5.21369-3.53834-6.03126" fill="#041e42"/><path d="m17.907 67.95243a6.35294 6.35294 0 1 1 6.35271 6.35316l-.05338-.00023a6.28592 6.28592 0 0 1 -6.29967-6.27214q-.00009-.04039.00034-.08079" fill="#fff"/></svg>