<svg height="301.59" viewBox="0 0 135.62512 301.5912" width="135.62" xmlns="http://www.w3.org/2000/svg"><rect fill="#fff" height="298.6" rx="30.969" ry="30.729" width="132.62" x="1.0967" y="1.3506"/><path d="m88.26 9.8647c-4.3309.0004875-7.5065.017087-7.7031.043945l-.47656.064941 1.0391.44629c1.3666.58674 2.8822 1.4939 3.6892 2.208.35755.31644.93868 1.0069 1.2915 1.5344.49092.734.74331.99406 1.0752 1.1082 1.0549.36265 1.8469 1.204 2.5522 2.7114.5408 1.1557.73871 2.2755.74121 4.1931.0035 2.6572-.60472 5.0478-2.0551 8.0771l-.66015 1.3784.47582.54052c1.0088 1.146.80128 2.1995-.99975 5.0769-.42721.68252-.90898 1.4981-1.0706 1.8125-.48252.93872-.93612 1.3805-1.6724 1.6291l-.67188.22705-.87182 1.6701c-2.1136 4.0486-3.7134 6.2035-5.0712 6.831-.25479.11776-.52858.2982-.60864.40088-.24072.3087-.44091 1.1323-.43579 1.7932.009 1.1663.08559 1.2431 2.3404 2.3481 2.308 1.1311 4.052 2.149 5.1655 3.0154.70668.54978.76294.63054.76294 1.0911 0 .40769.06191.53529.34375.70922.99225.61239 1.8081 1.1594 2.6045 1.7459.48722.35884 1.6404 1.1547 2.5625 1.7682 2.1435 1.4264 3.2881 2.3519 4.6184 3.7339 4.1809 4.3435 6.4822 10.705 7.1155 19.671.0704.99688.12849 3.3439.12915 5.2156l.001 3.4031.43092 1.7219c.4429 1.7704.89438 4.1154 1.5712 8.1594.46627 2.7856.91915 4.9668 1.2664 6.0994.1413.46091.93358 2.2162 1.7608 3.9006 1.9226 3.9151 2.5688 5.406 3.3312 7.6875.61469 1.8392 1.1204 4.0711 1.3171 5.8125.49591 4.3895 1.2206 7.8884 1.7549 8.4726.0805.088.78961.32844 1.5756.53443.78606.20598 1.7791.53803 2.2065.7378.73313.3426.80051.41148 1.1875 1.2153l.41015.8523 1.4375.72583c.79062.39926 1.5974.87738 1.7928 1.0625.46055.43636.80423 1.114.91015 1.794.0465.2985.25848.79585.47118 1.1052.84864 1.2343 2.1124 3.5918 2.2319 4.1636.0171.0819.0458-26.064.0637-58.101.0358-64.034.0877-59.494-.71533-62.608-.6648-2.5784-1.796-5.0812-3.3086-7.3208-3.695-5.47-9.325-9.0356-16.132-10.214-1.118-.19362-2.504-.21916-13.125-.24267-1.6328-.00361-3.2048-.00529-4.6485-.00513zm-1.8 79.205c-.62241 0-5.0782 2.6725-7.6901 4.6122-1.0047.74615-1.1545.91271-1.5638 1.7385-.63125 1.2725-3.02 7.2575-5.5225 13.836l-1.1416 3-.04614 1.4062c-.04248 1.2975-.02816 1.4064.1836 1.4075.35356.002 1.4161.66255 2.0512 1.2756 1.2551 1.2115 2.0238 2.7399 3.0349 6.0356.79815 2.6014 2.7244 9.3344 4.3448 15.187l1.6396 5.9226.51514 1.8601-.73096.7024-.7312.70238.29126 1.0625c.16024.58438.45314 1.6531.65088 2.375 2.3302 8.5069 3.4099 14.696 4.4802 25.688.51074 5.2449.89538 7.0632 2.1172 10.005 1.1812 2.8444 2.4586 5.3685 4.0732 8.0492 2.2949 3.8102 3.597 6.5335 4.3259 9.0479.7259 2.5036 1.657 7.2021 2.7295 13.772 1.4051 8.6079 1.8994 11.484 2.1125 12.295.19862.75655.40797 1.1255 1.4101 2.4841 1.7099 2.318 2.1108 2.9329 2.9544 4.533 1.3734 2.605 1.7196 4.1756 1.3504 6.125-.11068.58438-.42826 1.9906-.70581 3.125-1.3239 5.4108-1.5715 7.9956-1.0073 10.513.0697.31084.35486 1.9512.63378 3.6452.56209 3.4139.92609 4.8478 1.4109 5.5561.42636.62304.84206 1.8934.83862 2.563-.002.29435-.11401.78037-.25 1.0801-.13599.2997-.24731.63115-.24731.73658 0 .10541.55988 1.8852 1.2441 3.9551.68427 2.0699 1.3865 4.2696 1.5605 4.8884 1.3812 4.9094 1.3525 8.8899-.0847 11.75-.98681 1.9638-2.2036 3.2804-4.4219 4.7846-.20075.13613-.14334.14878.3894.085.83059-.0995 2.373-.49102 3.7192-.94409 3.4796-1.1711 6.9684-3.4608 9.6006-6.3005 3.3728-3.6389 5.5689-8.4774 6.1109-13.464.0905-.8329.13136-18.289.13061-55.625l-.001-54.411-.39966.875c-.51238 1.122-1.7331 3.1744-2.4262 4.0794-1.992 2.6009-4.731 4.8176-7.7019 6.2334-6.9929 3.3324-15.132 2.6316-21.47-1.8484-1.5166-1.0722-3.8229-3.379-4.9019-4.9032-4.4072-6.2264-5.1529-14.294-1.9611-21.224 2.4052-5.2222 7.2132-9.4745 12.612-11.155.72188-.22465 1.3626-.45261 1.4239-.50658.14279-.12593-.15561-.86663-1.8084-4.488-1.315-2.8875-3.0475-6.47-5.8912-12.196-1.5575-3.1388-1.7888-3.815-2.7112-7.9288-.88125-3.935-2.3425-11.444-3.6362-18.688-.615-3.4388-.58125-3.3125-.88625-3.3125z" fill="#c8102e"/><path d="m51.709 9.8208c-10.142.00575-20.469.05-21.32.12712-5.6638.51325-10.522 2.7077-14.522 6.5591-3.8644 3.7212-6.1061 8-7.1066 13.565-.19944 1.1093-.21562 8.7708-.25512 120.69-.028654 81.186-.0008375 120.24.086914 121.81.35251 6.3108 2.5688 11.325 6.9363 15.694 4.1216 4.123 9.3069 6.5094 15.046 6.9242 1.7019.12305 71.774.15739 71.769.0352-.002-.0502-.34443-.31631-.76122-.59131-1.5778-1.041-2.8378-2.7652-3.2991-4.5154-.56038-2.1258-.52885-4.5351.13061-9.9846.57701-4.768.93016-8.5558 1.0142-10.881l.08276-2.2938-.67554-.73168c-1.4332-1.552-1.7225-2.7018-1.0679-4.2464.18122-.42761.32959-.91239.32959-1.0774 0-.45546-.6672-2.6032-1.2876-4.145-.72318-1.7972-1.8036-3.9414-3.4759-6.8978-2.3986-4.2405-2.8864-5.3829-2.8996-6.7898-.0084-.88606.16366-1.3322.78832-2.0438l.3706-.42187-.35815-1.0486c-.47386-1.3878-.96328-2.5981-1.9536-4.8315l-.81909-1.8471-1.1355-.67358c-4.5825-2.725-10.149-6.9375-15.598-11.825-1.6162-1.45-4.4938-4.225-6.8812-6.625-1.4781-1.4902-3.7562-3.6498-5.0625-4.7989-2.3291-2.049-3.2065-2.9508-3.5999-3.6998-.10831-.20625-.51969-.74063-.9143-1.1875-5.0779-5.7504-16.495-22.589-20.308-29.95-.42364-.81802-.78232-1.5011-.79688-1.518-.01455-.0169-1.3648-.2235-3.0008-.45923-1.636-.23574-3.0158-.47499-3.0661-.53174-.05038-.0567-.2979-.79779-.55005-1.6467-.9911-3.3368-2.2584-6.141-5.8838-13.019-5.1719-9.812-6.5159-14.76-5.7556-21.188.48761-4.1226 1.8586-10.607 2.5532-12.074.41856-.88445 1.3874-2.077 2.8732-3.5376l1.385-1.365v-1.5192-1.5195l-3.3438-.003c-4.4295-.004-5.6984-.19316-6.6286-.9895-.56059-.47983-.6643-.74046-1.158-2.9106-.14589-.64134-.46315-1.6539-.70508-2.25-.9757-2.4042-1.037-3.3374-.35962-5.4764.23647-.74671.52169-1.7186.63379-2.1596 1.0038-3.9494 3.5379-9.9399 8.438-19.948.84152-1.7188 1.715-3.6594 1.9411-4.3125 1.4976-4.325 2.9158-7.7541 4.394-10.625 3.2704-6.3511 5.7802-10.14 8.367-12.63 1.3274-1.2781 2.3138-1.9675 3.8432-2.686 2.071-.9729 3.6095-1.2835 8.6386-1.7446l3.373-.30932.37695-.42774.37671-.42774 1.625-.07764c5.3835-.25761 7.3229-.93522 8.2426-2.8796.45618-.96426.65515-2.0016 1.1357-5.9216.24158-1.9704.45198-3.6669.46778-3.77.01774-.11581-.05377-.17362-.18701-.15136-1.1443.19115-2.1081-2.356-2.1424-5.6611-.02772-2.68.36472-3.2866 2.2154-3.4244l1.0175-.0775.0275-.9375c.0604-2.0418.31468-5.01.54565-6.3686.53078-3.122 1.2373-4.6522 2.9175-6.3189 1.224-1.2141 2.4585-2.0216 4.2756-2.7964.6327-.26975.9801-.47958.88819-.53638-.12375-.076875-10.086-.10962-20.23-.10375zm-28.238 227.38h3.987 3.987l.19702 1.0938c.10844.60156.48299 2.6688.83228 4.5938s.85696 4.7375 1.1282 6.25c.27121 1.5125.99912 5.5344 1.6176 8.9375.61855 3.4031 1.4155 7.8046 1.771 9.7812.35546 1.9766.66758 3.5724.6936 3.5464.03948-.0395-.14718-3.3232-.39892-7.0151-.09232-1.3538-.17429-2.7409-.2544-4.3125-.0403-.79062-.09572-1.775-.12329-2.1875s-.08432-1.7906-.12622-3.0625-.10028-2.5938-.12964-2.9375c-.02936-.34375-.08808-3.789-.13061-7.6562l-.07739-7.0312h2.5756 2.5759v21.562 21.562h-3.6588-3.6585l-.60522-3.2812c-.3329-1.8048-1.018-5.5031-1.5225-8.2188-.50445-2.7156-1.2888-6.9625-1.7429-9.4375-1.1837-6.4505-1.785-9.6614-2.1299-11.375l-.30176-1.5.05884 1.1875c.03246.65313.11552 2.8469.18432 4.875.06881 2.0281.15275 4.3625.18652 5.1875.04396 1.0735.10005 19.68.06738 22.344-.0025.20095-.20609.21875-2.5026.21875h-2.5v-21.562-21.562zm22.125 0 4.5938.001c2.5265 0 4.9594.0574 5.4062.12646 2.7014.41755 4.6199 1.9278 5.4885 4.3205.59764 1.6462.66012 2.4781.60645 8.052-.04148 4.3068-.08075 5.1745-.26319 5.8125-.35728 1.2495-.8301 2.0809-1.6362 2.8762l-.76148.75121.69605.68629c.81259.801 1.2668 1.57 1.6538 2.8005.26972.85746.27856 1.054.27856 6.1358 0 5.8714-.01161 5.9711-.91309 7.8125-.83546 1.7065-2.2894 2.8624-4.346 3.4551-.62839.1811-1.5049.22128-5.7722.26416l-5.0312.0625v-21.575-21.575zm23.136 0h4.1084 4.1084l.073.46875c.04016.25781.38442 3.1688.76514 6.4688.38071 3.3 1.1672 10.078 1.7478 15.062 2.23 19.15 2.4362 20.925 2.4362 21.025 0 .05-1.3475.1-2.995.1h-2.9944l-.06445-.40625c-.03547-.22344-.17832-1.8688-.31762-3.6562-.1393-1.7875-.28728-3.5735-.32861-3.9688l-.0752-.71875h-2.5479c-2.5418 0-2.548.001-2.6058.28125-.03185.15469-.17685 1.8-.32226 3.6562s-.29706 3.6985-.33716 4.0938l-.073.71875h-2.8571-2.8571v-.37426c0-.30805.85491-7.5564 1.6882-14.314.10175-.825.83219-6.9 1.623-13.5 1.6368-13.659 1.6755-13.979 1.7618-14.531l.06323-.40625zm3.7529 4.8404c-.01911.00007-.03839.0198-.05957.043-.02731.0298-.08486.56045-.12769 1.1792s-.10716 1.4906-.14306 1.9375c-.03591.44687-.23344 3.0625-.43896 5.8125s-.57539 7.3216-.82178 10.159-.42105 5.228-.38842 5.3125c.0436.11296.6067.15356 2.1265.15356 1.137 0 2.1004-.0329 2.1406-.073.04027-.0401-.09401-1.9526-.29834-4.25-1.6396-18.435-1.8045-20.275-1.9892-20.274zm-21.139.6375v7.0512c0 3.8782.02351 7.0748.05225 7.1035s.74592.0326 1.5938.009c1.7734-.0497 2.2092-.19481 2.6332-.8767l.2825-.45v-5.6875c0-5.4628-.0099-5.7041-.25-6.1118-.49801-.84548-.7647-.94612-2.6335-.9917l-1.6788-.05zm0 18.864v6.6401 6.6401h1.4736c1.7832 0 2.405-.23333 2.8315-1.0625.24734-.48077.25732-.69722.25732-5.625 0-4.9212-.01001-5.1424-.25341-5.5625-.4117-.7106-1.0027-.9187-2.7779-.97852l-1.5312-.0375z" fill="#1d428a"/></svg>